# xmcd
#
# Track frame offsets:
#	225
#	14490
#	27653
#	39155
#	58058
#	75715
#	91375
#	108118
#	126168
#	138163
#	150350
#	162435
#	174815
#	185293
#	196743
#	208743
#	223185
#
# Disc length: 3274
#
# Revision: 1
# Processed by: cddbd v1.5.1PL0 Copyright (c) Steve Scherf et al.
# Submitted via: dBpowerAMP V4.0
# Normalized: r0:DSETVAR1,TDELIM( - )
#
DISCID=dd0cc711
DTITLE=Various Artist - Een heel gelukkig kerstfeest met cd 1
DYEAR=1900
DGENRE=
TTITLE0=BZN - Joy to the world
TTITLE1=Marco Bakker - White Christmas
TTITLE2=Anneke Gronlöh - De herdekens lagen bij nachte
TTITLE3=Saskia and serge - Mary's boychild
TTITLE4=Laurens van Rooyen - Winter Wonderland
TTITLE5=Hepie and Hepie - Hoog daar aan de Hemel
TTITLE6=Marietje - Die ene Ster
TTITLE7=André Hazes - Met kerst ben ik thuis
TTITLE8=John Woodhouse - Nu sijt wellekome
TTITLE9=De Havenzangers - Kling klokjes kling
TTITLE10=Ronnie Tober - Komt allen tezamen
TTITLE11=Blue Diamonds - Christmasday is coming
TTITLE12=Corry Konings - Een kaartje met kerstmis
TTITLE13=Tonny Eyk - Santa Claus
TTITLE14=Harmen Veerman - Rudolph
TTITLE15=Sandra Reemer - Christmas Time
TTITLE16=Bonnie ST. Claire - Jingle Bells
EXTD=
EXTT0=
EXTT1=
EXTT2=
EXTT3=
EXTT4=
EXTT5=
EXTT6=
EXTT7=
EXTT8=
EXTT9=
EXTT10=
EXTT11=
EXTT12=
EXTT13=
EXTT14=
EXTT15=
EXTT16=
PLAYORDER=
